/* XPM */
static char *_e645423ad16488dd70470df7c3b0601[] = {
/* columns rows colors chars-per-pixel */
"64 64 182 2 ",
"   c black",
".  c #010101",
"X  c #020202",
"o  c gray1",
"O  c gray2",
"+  c #070707",
"@  c #090909",
"#  c #0E0E0E",
"$  c #101010",
"%  c #131313",
"&  c #1B1B1B",
"*  c gray13",
"=  c #252525",
"-  c #272727",
";  c #282828",
":  c #313131",
">  c #323232",
",  c gray20",
"<  c #343434",
"1  c #353535",
"2  c gray21",
"3  c #373737",
"4  c gray22",
"5  c #393939",
"6  c #3A3A3A",
"7  c gray23",
"8  c #3C3C3C",
"9  c gray24",
"0  c #3E3E3E",
"q  c #3F3F3F",
"w  c gray25",
"e  c #414141",
"r  c gray26",
"t  c #434343",
"y  c #444444",
"u  c gray27",
"i  c #464646",
"p  c gray28",
"a  c #484848",
"s  c #494949",
"d  c gray29",
"f  c #4B4B4B",
"g  c #4C4C4C",
"h  c gray30",
"j  c #4E4E4E",
"k  c gray31",
"l  c #515151",
"z  c gray32",
"x  c #535353",
"c  c #555555",
"v  c #565656",
"b  c gray34",
"n  c #585858",
"m  c gray35",
"M  c #5A5A5A",
"N  c #5B5B5B",
"B  c gray36",
"V  c #5D5D5D",
"C  c #606060",
"Z  c gray38",
"A  c #626262",
"S  c gray39",
"D  c #646464",
"F  c #656565",
"G  c gray40",
"H  c #676767",
"J  c #686868",
"K  c DimGray",
"L  c #6A6A6A",
"P  c gray42",
"I  c #6C6C6C",
"U  c #6D6D6D",
"Y  c #6F6F6F",
"T  c gray44",
"R  c #727272",
"E  c gray45",
"W  c gray46",
"Q  c #767676",
"!  c gray47",
"~  c #797979",
"^  c #7B7B7B",
"/  c #7C7C7C",
"(  c gray49",
")  c gray50",
"_  c #808080",
"`  c gray51",
"'  c #848484",
"]  c gray52",
"[  c #868686",
"{  c gray53",
"}  c #888888",
"|  c gray55",
" . c #8D8D8D",
".. c #8E8E8E",
"X. c #909090",
"o. c #929292",
"O. c #939393",
"+. c gray58",
"@. c #959595",
"#. c gray59",
"$. c #979797",
"%. c #989898",
"&. c #9A9A9A",
"*. c #9B9B9B",
"=. c gray62",
"-. c #9F9F9F",
";. c #A0A0A0",
":. c gray63",
">. c gray64",
",. c #A4A4A4",
"<. c #A5A5A5",
"1. c gray65",
"2. c #A7A7A7",
"3. c gray66",
"4. c #A9A9A9",
"5. c gray67",
"6. c #ACACAC",
"7. c #AEAEAE",
"8. c #AFAFAF",
"9. c gray69",
"0. c gray70",
"q. c #B4B4B4",
"w. c #B6B6B6",
"e. c #B7B7B7",
"r. c gray72",
"t. c #B9B9B9",
"y. c gray73",
"u. c #BBBBBB",
"i. c #BCBCBC",
"p. c gray74",
"a. c gray",
"s. c gray75",
"d. c #C0C0C0",
"f. c #C1C1C1",
"g. c #C3C3C3",
"h. c #C6C6C6",
"j. c #C8C8C8",
"k. c gray80",
"l. c #CDCDCD",
"z. c #CECECE",
"x. c #D0D0D0",
"c. c gray83",
"v. c #D5D5D5",
"b. c gray84",
"n. c #D8D8D8",
"m. c gray86",
"M. c gainsboro",
"N. c #DDDDDD",
"B. c gray87",
"V. c #DFDFDF",
"C. c gray88",
"Z. c #E1E1E1",
"A. c #E2E2E2",
"S. c #E4E4E4",
"D. c gray90",
"F. c #E6E6E6",
"G. c #E7E7E7",
"H. c gray91",
"J. c #E9E9E9",
"K. c #EAEAEA",
"L. c gray92",
"P. c #ECECEC",
"I. c gray93",
"U. c #EEEEEE",
"Y. c #EFEFEF",
"T. c gray94",
"R. c #F1F1F1",
"E. c gray95",
"W. c #F3F3F3",
"Q. c #F4F4F4",
"!. c gray96",
"~. c #F6F6F6",
"^. c gray97",
"/. c #F8F8F8",
"(. c #F9F9F9",
"). c gray98",
"_. c #FBFBFB",
"`. c gray99",
"'. c #FDFDFD",
"]. c #FEFEFE",
"[. c gray100",
"{. c None",
/* pixels */
"{.{.{.{.{.{.{.{.{.{.{.{.{.{.{.{.{.{.{.{.{.{.{.{.{.{.{.{.{.{.{.{.{.{.{.{.{.{.{.{.{.{.{.{.{.{.{.{.{.{.{.{.{.{.{.{.{.{.{.{.{.{.{.{.",
"{.{.{.{.{.{.{.{.{.{.{.{.{.{.{.{.{.{.{.{.{.{.{.{.{.{.{.{.{.{.{.{.{.{.{.{.{.{.{.{.{.{.{.{.{.{.{.{.{.{.{.{.{.{.{.{.{.{.{.{.{.{.{.{.",
"{.{.{.{.{.{.{.{.{.{.{.{.{.{.{.{.{.{.{.{.{.{.{.{.{.{.{.{.{.{.{.{.{.{.{.{.{.{.{.{.{.{.{.{.{.{.{.{.{.{.{.{.{.{.{.{.{.{.{.{.{.{.{.{.",
"{.{.{.{.{.{.{.{.{.{.{.{.{.{.{.{.{.{.{.{.{.{.{.{.{.{.{.{.{.{.{.{.{.{.{.{.{.{.{.{.{.{.{.{.{.{.{.{.{.{.{.{.{.{.{.{.{.{.{.{.{.{.{.{.",
"{.{.{.{.{.{.{.{.{.{.{.{.{.{.{.{.{.{.{.{.{.{.{.{.{.{.{.g g g g g g g g g g {.{.{.{.{.{.{.{.{.{.{.{.{.{.{.{.{.{.{.{.{.{.{.{.{.{.{.",
"{.{.{.{.{.{.{.{.{.{.{.{.{.{.{.{.{.{.{.{.{.{.{.g g g g g g g g g g g g d g g g g g {.{.{.{.{.{.{.{.{.{.{.{.{.{.{.{.{.{.{.{.{.{.{.",
"{.{.{.{.{.{.{.{.{.{.{.{.{.{.{.{.{.{.{.{.g g g g g g d d d d d d g d d d d g g g g g g g {.{.{.{.{.{.{.{.{.{.{.{.{.{.{.{.{.{.{.{.",
"{.{.{.{.{.{.{.{.{.{.{.{.{.{.{.{.{.{.d g d g g d d g B T { %.1.4.4.1.#.{ Y N g d d g d g d g {.{.{.{.{.{.{.{.{.{.{.{.{.{.{.{.{.{.",
"{.{.{.{.{.{.{.{.{.{.{.{.{.{.{.{.{.d g d d d g F o.d.C.W.[.[.[.[.[.[.[.[.W.B.a. .F g d d d d d {.{.{.{.{.{.{.{.{.{.{.{.{.{.{.{.{.",
"{.{.{.{.{.{.{.{.{.{.{.{.{.{.{.d d d d d g ^ u.J.[.[.[.[.[.[.[.[.[.[.[.[.[.[.[.[.J.e.W g d d d d d {.{.{.{.{.{.{.{.{.{.{.{.{.{.{.",
"{.{.{.{.{.{.{.{.{.{.{.{.{.{.d d d d d W d.Q.[.[.[.[.[.[.[.[.[.[.[.[.[.[.[.[.[.[.[.[.Q.a.T d d d d d {.{.{.{.{.{.{.{.{.{.{.{.{.{.",
"{.{.{.{.{.{.{.{.{.{.{.{.{.d d d d x 1.P.[.[.[.[.[.[.[.[.[.[.[.[.[.[.[.[.[.[.[.[.[.[.[.[.J.>.x d d d d {.{.{.{.{.{.{.{.{.{.{.{.{.",
"{.{.{.{.{.{.{.{.{.{.{.{.d d d p Y z.[.[.[.[.[.[.[.[.[.[.[.[.[.[.[.[.[.[.[.[.[.[.[.[.[.[.[.[.j.F p d d p {.{.{.{.{.{.{.{.{.{.{.{.",
"{.{.{.{.{.{.{.{.{.{.{.p d p p ^ S.[.[.[.[.[.[.[.[.[.[.[.[.[.[.[.[.[.[.[.[.[.[.[.[.[.[.[.[.[.[.B.W p p d d {.{.{.{.{.{.{.{.{.{.{.",
"{.{.{.{.{.{.{.{.{.{.p d d p _ P.[.[.[.[.[.[.[.[.[.[.[.[.[.[.[.[.[.[.[.[.[.[.[.[.[.[.[.[.[.[.[.[.J.( p p p d {.{.{.{.{.{.{.{.{.{.",
"{.{.{.{.{.{.{.{.{.p p p p ^ P.[.[.[.[.[.[.[.[.[.[.[.[.[.[.[.[.[.[.[.[.[.[.[.[.[.[.[.[.[.[.[.[.[.[.S.W p p d p {.{.{.{.{.{.{.{.{.",
"{.{.{.{.{.{.{.{.{.p p p K C.[.[.[.[.[.[.[.[.[.[.[.[.[.[.[.[.[.[.[.[.[.[.[.[.[.[.[.[.[.[.[.[.[.[.[.[.B.C p p p {.{.{.{.{.{.{.{.{.",
"{.{.{.{.{.{.{.{.p p p x z.[.[.[.[.[.[.[.[.[.[.[.[.[.[.[.[.[.[.[.[.[.[.[.[.[.[.[.[.[.[.[.[.[.[.[.[.[.[.j.g p p p {.{.{.{.{.{.{.{.",
"{.{.{.{.{.{.{.p p t p 1.[.[.[.[.[.[.[.[.[.[.[.[.[.[.[.[.[.[.[.[.[.[.[.[.[.[.[.[.[.[.[.[.[.[.[.[.[.[.[.[.=.p p p {.{.{.{.{.{.{.{.",
"{.{.{.{.{.{.{.p p p Y P.[.[.[.[.[.[.[.[.[.[.[.[.[.[.[.[.[.[.[.[.[.[.[.[.[.[.[.[.[.[.[.[.[.[.[.[.[.[.[.[.J.F t p p {.{.{.{.{.{.{.",
"{.{.{.{.{.{.p p p d a.[.[.[.[.[.[.[.[.[.[.[.[.[.[.[.[.[.[.[.[.[.[.[.[.[.[.[.[.[.[.[.[.[.[.[.[.[.[.[.[.[.[.e.p t p {.{.{.{.{.{.{.",
"{.{.{.{.{.{.p t t W Q.[.[.[.[.[.[.[.[.[.[.[.[.[.[.[.[.[.[.[.[.[.[.[.[.[.[.[.[.[.[.[.[.[.[.[.[.[.[.[.[.[.[.W.Y t t p {.{.{.{.{.{.",
"{.{.{.{.{.{.t t p e.[.[.[.[.[.[.[.[.[.[.[.[.[.[.[.[.[.[.[.[.[.[.[.[.[.[.[.[.[.[.[.[.[.[.[.[.[.[.[.[.[.[.[.[.6.p t p {.{.{.{.{.{.",
"{.{.{.{.{.t t t C J.[.[.[.[.[.[.o.C C F C F F C C F C F F C F C C C F C F F C F C F F C F C C >.[.[.[.[.[.[.C.N t t p {.{.{.{.{.",
"{.{.{.{.{.t t q  .[.[.[.[.[.[./.p                                                             C [.[.[.[.[.[./.{ q t t {.{.{.{.{.",
"{.{.{.{.{.t t p a.[.[.[.[.[.[./.d                                                             F [.[.[.[.[.[.[.0.t t t {.{.{.{.{.",
"{.{.{.{.{.t t x C.[.[.[.[.[.[./.d                                                             C [.[.[.[.[.[.[.b.g t t {.{.{.{.{.",
"{.{.{.{.t t q K W.[.[.[.[.[.[./.d                                                             F [.[.[.[.[.[.[.W.C t t t {.{.{.{.",
"{.{.{.{.t t q ( [.[.[.[.[.[.[./.d                                                             C [.[.[.[.[.[.[./.W q t q {.{.{.{.",
"{.{.{.{.t q q o.[.[.[.[.[.[.[./.d                                                             F [.[.[.[.[.[.[.[.{ q q t {.{.{.{.",
"{.{.{.{.q q q =.[.[.[.[.[.[.[./.d                                                             F [.[.[.[.[.[.[.[.#.q t q {.{.{.{.",
"{.{.{.{.q t q >.[.[.[.[.[.[.[./.d                                                             C [.[.[.[.[.[.[.[.%.q q t {.{.{.{.",
"{.{.{.{.q t q 1.[.[.[.[.[.[.[./.d                                                             C [.[.[.[.[.[.[.[.%.q q q {.{.{.{.",
"{.{.{.{.q q 6 =.[.[.[.[.[.[.[./.d                                                             F [.[.[.[.[.[.[.[.o.q q q {.{.{.{.",
"{.{.{.{.q q q  .[.[.[.[.[.[.[./.d                                                             F [.[.[.[.[.[.[.[.{ 6 t q {.{.{.{.",
"{.{.{.{.q q 6 ( [.[.[.[.[.[.[./.d                                                             C [.[.[.[.[.[.[./.T 6 q q {.{.{.{.",
"{.{.{.{.q q 6 F W.[.[.[.[.[.[./.d                                                             F [.[.[.[.[.[.[.P.B 6 q q {.{.{.{.",
"{.{.{.{.{.q 6 g m.[.[.[.[.[.[./.d                                                             C [.[.[.[.[.[.[.b.d 6 q {.{.{.{.{.",
"{.{.{.{.{.q q q e.[.[.[.[.[.[./.d                             , N #                           F [.[.[.[.[.[.[.6.q 6 6 {.{.{.{.{.",
"{.{.{.{.{.6 6 6 { [.[.[.[.[.[./.d                           - m.Q.p                           C [.[.[.[.[.[.[.^ 3 q q {.{.{.{.{.",
"{.{.{.{.{.q 6 6 x J.[.[.[.[.[./.p                           6 W.[.F                           C [.[.[.[.[.[.C.g 6 q q {.{.{.{.{.",
"{.{.{.{.{.{.q 6 6 0.[.[.[.[.[./.K % @                       3 W.[.o.                    O * p >.[.[.[.[.[.[.1.q 6 6 {.{.{.{.{.{.",
"{.{.{.{.{.{.6 6 3 K W.[.[.[.[.[.P.b.a.#.B t , - & # O O     p Q.[.4.          O % ; g _ e.C.Q.[.[.[.[.[.[.P.C 6 6 6 {.{.{.{.{.{.",
"{.{.{.{.{.{.6 6 6 q e.[.[.[.[.[.[.[.[.[.[.Q.W.C.m.z.0.6.1.>.a.[.[.x.C F ( #.4.u.x.J./.[.[.[.[.[.[.[.[.[.[.6.6 6 q {.{.{.{.{.{.{.",
"{.{.{.{.{.{.{.6 6 3 C J.[.[.[.[.[.[.[.[.[.[.[.[.[.[.[.[.[.[.[.[.[.[.[.[.[.[.[.[.[.[.[.[.[.[.[.[.[.[.[.[.S.B 6 6 6 {.{.{.{.{.{.{.",
"{.{.{.{.{.{.{.6 6 6 6 #.[.[.[.[.[.[.[.[.[.[.[.[.[.[.[.[.[.[.[.[.[.[.[.[.[.[.[.[.[.[.[.[.[.[.[.[.[.[.[.[. .3 6 6 {.{.{.{.{.{.{.{.",
"{.{.{.{.{.{.{.{.6 6 3 t d.[.[.[.[.[.[.[.[.[.[.[.[.[.[.[.[.[.[.[.[.[.[.[.[.[.[.[.[.[.[.[.[.[.[.[.[.[.[.u.t 3 6 6 {.{.{.{.{.{.{.{.",
"{.{.{.{.{.{.{.{.{.6 6 3 N B.[.[.[.[.[.[.[.[.[.[.[.[.[.[.[.[.[.[.[.[.[.[.[.[.[.[.[.[.[.[.[.[.[.[.[.[.b.x 3 3 6 {.{.{.{.{.{.{.{.{.",
"{.{.{.{.{.{.{.{.{.6 3 6 3 F S.[.[.[.[.[.[.[.[.[.[.[.[.[.[.[.[.[.[.[.[.[.[.[.[.[.[.[.[.[.[.[.[.[.[.C.C 3 3 6 3 {.{.{.{.{.{.{.{.{.",
"{.{.{.{.{.{.{.{.{.{.3 6 3 3 T S.[.[.[.[.[.[.[.[.[.[.[.[.[.[.[.[.[.[.[.[.[.[.[.[.[.[.[.[.[.[.[.[.B.K 3 6 3 6 {.{.{.{.{.{.{.{.{.{.",
"{.{.{.{.{.{.{.{.{.{.{.3 3 3 3 K B.[.[.[.[.[.[.[.[.[.[.[.[.[.[.[.[.[.[.[.[.[.[.[.[.[.[.[.[.[.[.x.B 3 3 3 3 {.{.{.{.{.{.{.{.{.{.{.",
"{.{.{.{.{.{.{.{.{.{.{.{.3 3 3 3 x a.[.[.[.[.[.[.[.[.[.[.[.[.[.[.[.[.[.[.[.[.[.[.[.[.[.[.[.[.u.x 3 3 3 3 {.{.{.{.{.{.{.{.{.{.{.{.",
"{.{.{.{.{.{.{.{.{.{.{.{.{.3 3 3 , t o.J.[.[.[.[.[.[.[.[.[.[.[.[.[.[.[.[.[.[.[.[.[.[.[.[.S. .t , 3 3 3 {.{.{.{.{.{.{.{.{.{.{.{.{.",
"{.{.{.{.{.{.{.{.{.{.{.{.{.{.3 3 3 3 , N 6.W.[.[.[.[.[.[.[.[.[.[.[.[.[.[.[.[.[.[.[.[.P.4.x , , 3 3 3 {.{.{.{.{.{.{.{.{.{.{.{.{.{.",
"{.{.{.{.{.{.{.{.{.{.{.{.{.{.{.3 3 , 3 , 6 C 1.C./.[.[.[.[.[.[.[.[.[.[.[.[.[.[.[.B.>.B 6 , 3 3 3 , {.{.{.{.{.{.{.{.{.{.{.{.{.{.{.",
"{.{.{.{.{.{.{.{.{.{.{.{.{.{.{.{.{.3 , , 3 , 3 g ( 6.b.P./.[.[.[.[.[.[./.J.b.4.W d , , 3 , 3 , {.{.{.{.{.{.{.{.{.{.{.{.{.{.{.{.{.",
"{.{.{.{.{.{.{.{.{.{.{.{.{.{.{.{.{.{.{.3 3 , , , : 3 t x K (  .o.#. .( K x q , , , , 3 3 , {.{.{.{.{.{.{.{.{.{.{.{.{.{.{.{.{.{.{.",
"{.{.{.{.{.{.{.{.{.{.{.{.{.{.{.{.{.{.{.{.{., , , , , , , , : , , : , , , , 3 , , 3 , , {.{.{.{.{.{.{.{.{.{.{.{.{.{.{.{.{.{.{.{.{.",
"{.{.{.{.{.{.{.{.{.{.{.{.{.{.{.{.{.{.{.{.{.{.{.3 , , , 3 3 , 3 , , , , , , 3 , 3 3 {.{.{.{.{.{.{.{.{.{.{.{.{.{.{.{.{.{.{.{.{.{.{.",
"{.{.{.{.{.{.{.{.{.{.{.{.{.{.{.{.{.{.{.{.{.{.{.{.{.{.{., , , , , , , , , , {.{.{.{.{.{.{.{.{.{.{.{.{.{.{.{.{.{.{.{.{.{.{.{.{.{.{.",
"{.{.{.{.{.{.{.{.{.{.{.{.{.{.{.{.{.{.{.{.{.{.{.{.{.{.{.{.{.{.{.{.{.{.{.{.{.{.{.{.{.{.{.{.{.{.{.{.{.{.{.{.{.{.{.{.{.{.{.{.{.{.{.{.",
"{.{.{.{.{.{.{.{.{.{.{.{.{.{.{.{.{.{.{.{.{.{.{.{.{.{.{.{.{.{.{.{.{.{.{.{.{.{.{.{.{.{.{.{.{.{.{.{.{.{.{.{.{.{.{.{.{.{.{.{.{.{.{.{.",
"{.{.{.{.{.{.{.{.{.{.{.{.{.{.{.{.{.{.{.{.{.{.{.{.{.{.{.{.{.{.{.{.{.{.{.{.{.{.{.{.{.{.{.{.{.{.{.{.{.{.{.{.{.{.{.{.{.{.{.{.{.{.{.{.",
"{.{.{.{.{.{.{.{.{.{.{.{.{.{.{.{.{.{.{.{.{.{.{.{.{.{.{.{.{.{.{.{.{.{.{.{.{.{.{.{.{.{.{.{.{.{.{.{.{.{.{.{.{.{.{.{.{.{.{.{.{.{.{.{."
};
