/* XPM */
static char *_a66087840b84003a74fd17b30b6d1d2[] = {
/* columns rows colors chars-per-pixel */
"16 16 86 1 ",
"  c black",
". c gray4",
"X c #0B0B0B",
"o c gray5",
"O c #161616",
"+ c gray10",
"@ c gray14",
"# c #272727",
"$ c #282828",
"% c #2A2A2A",
"& c #2C2C2C",
"* c #2D2D2D",
"= c gray20",
"- c #343434",
"; c #353535",
": c gray22",
"> c #3C3C3C",
", c gray24",
"< c gray27",
"1 c #464646",
"2 c #4B4B4B",
"3 c #4C4C4C",
"4 c gray30",
"5 c gray32",
"6 c #535353",
"7 c #555555",
"8 c gray35",
"9 c #5A5A5A",
"0 c #5B5B5B",
"q c #5D5D5D",
"w c gray37",
"e c #626262",
"r c gray40",
"t c #676767",
"y c #686868",
"u c DimGray",
"i c #6A6A6A",
"p c #6C6C6C",
"a c #6D6D6D",
"s c gray43",
"d c gray44",
"f c #727272",
"g c gray47",
"h c #7C7C7C",
"j c #7E7E7E",
"k c #898989",
"l c gray59",
"z c #A5A5A5",
"x c gray65",
"c c gray66",
"v c #AAAAAA",
"b c gray68",
"n c #AFAFAF",
"m c #B1B1B1",
"M c #B2B2B2",
"N c gray78",
"B c #C8C8C8",
"V c #D0D0D0",
"C c gray82",
"Z c #DADADA",
"A c gray86",
"S c #DDDDDD",
"D c gray87",
"F c #DFDFDF",
"G c gray88",
"H c #E1E1E1",
"J c #E2E2E2",
"K c gray89",
"L c #E9E9E9",
"P c #EAEAEA",
"I c gray92",
"U c gray93",
"Y c #EEEEEE",
"T c #EFEFEF",
"R c gray94",
"E c #F1F1F1",
"W c gray95",
"Q c gray96",
"! c #F6F6F6",
"~ c gray97",
"^ c gray98",
"/ c gray99",
"( c #FDFDFD",
") c #FEFEFE",
"_ c gray100",
"` c None",
/* pixels */
"````````````````",
"`````4effe4`````",
"````smHWWHms````",
"```jK))))))Hj```",
"``uH))))))))Ht``",
"`1m)VBBBBBBV)b1`",
"`9HL=XooooX:YD9`",
"`uWL#      &YWt`",
"`uWL&      *YYt`",
"`7DL@  O+  &YD5`",
"`>c^k5>gj:5l^c>`",
"``qH)^!!!W^)Dq``",
"```fD))))))Ds```",
"````9zDYYZz9````",
"`````:4qq2:`````",
"````````````````"
};
