/* XPM */
static char *_d1706feb8494b58c333e77f75a1d3e7[] = {
/* columns rows colors chars-per-pixel */
"32 32 129 2 ",
"   c black",
".  c #010101",
"X  c #020202",
"o  c gray1",
"O  c #0B0B0B",
"+  c #161616",
"@  c gray19",
"#  c #313131",
"$  c #323232",
"%  c gray20",
"&  c #343434",
"*  c #353535",
"=  c gray21",
"-  c gray22",
";  c #393939",
":  c gray23",
">  c #3C3C3C",
",  c gray24",
"<  c #3E3E3E",
"1  c #3F3F3F",
"2  c gray25",
"3  c #414141",
"4  c gray26",
"5  c #434343",
"6  c #444444",
"7  c #464646",
"8  c gray28",
"9  c #484848",
"0  c #494949",
"q  c gray29",
"w  c #4B4B4B",
"e  c #4C4C4C",
"r  c #4E4E4E",
"t  c #505050",
"y  c #515151",
"u  c gray32",
"i  c #535353",
"p  c #565656",
"a  c #585858",
"s  c gray35",
"d  c #5A5A5A",
"f  c #5B5B5B",
"g  c gray36",
"h  c #5D5D5D",
"j  c gray37",
"k  c #5F5F5F",
"l  c gray38",
"z  c #626262",
"x  c gray39",
"c  c #656565",
"v  c gray40",
"b  c DimGray",
"n  c #6A6A6A",
"m  c #6D6D6D",
"M  c #727272",
"N  c gray45",
"B  c gray46",
"V  c #767676",
"C  c #777777",
"Z  c gray47",
"A  c gray49",
"S  c #808080",
"D  c #848484",
"F  c #868686",
"G  c gray53",
"H  c #888888",
"J  c #898989",
"K  c #8B8B8B",
"L  c #8E8E8E",
"P  c #909090",
"I  c gray58",
"U  c #959595",
"Y  c gray59",
"T  c #979797",
"R  c #989898",
"E  c #A0A0A0",
"W  c gray66",
"Q  c #A9A9A9",
"!  c #AAAAAA",
"~  c #B2B2B2",
"^  c gray70",
"/  c #B6B6B6",
"(  c #B7B7B7",
")  c #B9B9B9",
"_  c gray73",
"`  c #BCBCBC",
"'  c gray74",
"]  c gray",
"[  c gray75",
"{  c #C0C0C0",
"}  c #C1C1C1",
"|  c gray76",
" . c #C5C5C5",
".. c #C6C6C6",
"X. c gray78",
"o. c #CACACA",
"O. c #CBCBCB",
"+. c #CDCDCD",
"@. c #D7D7D7",
"#. c #D8D8D8",
"$. c #DADADA",
"%. c gray86",
"&. c gainsboro",
"*. c #DFDFDF",
"=. c #E1E1E1",
"-. c #E2E2E2",
";. c gray89",
":. c #E4E4E4",
">. c gray90",
",. c #E6E6E6",
"<. c gray91",
"1. c #E9E9E9",
"2. c #EAEAEA",
"3. c #EFEFEF",
"4. c gray95",
"5. c #F3F3F3",
"6. c #F4F4F4",
"7. c gray96",
"8. c #F6F6F6",
"9. c gray97",
"0. c #F8F8F8",
"q. c #F9F9F9",
"w. c gray98",
"e. c #FBFBFB",
"r. c gray99",
"t. c #FDFDFD",
"y. c #FEFEFE",
"u. c gray100",
"i. c None",
/* pixels */
"i.i.i.i.i.i.i.i.i.i.i.i.i.i.i.i.i.i.i.i.i.i.i.i.i.i.i.i.i.i.i.i.",
"i.i.i.i.i.i.i.i.i.i.i.i.i.i.i.i.i.i.i.i.i.i.i.i.i.i.i.i.i.i.i.i.",
"i.i.i.i.i.i.i.i.i.i.i.i.9 9 9 9 9 8 r 9 i.i.i.i.i.i.i.i.i.i.i.i.",
"i.i.i.i.i.i.i.i.i.i.r 9 i x C S S C x i 9 9 i.i.i.i.i.i.i.i.i.i.",
"i.i.i.i.i.i.i.i.9 9 x R +.1.9.y.e.9.1.+.U x 9 9 i.i.i.i.i.i.i.i.",
"i.i.i.i.i.i.i.9 i U =.y.y.y.y.y.y.y.y.y.y.=.I i 9 i.i.i.i.i.i.i.",
"i.i.i.i.i.i.8 j } y.y.y.y.y.y.y.y.y.y.y.y.y.y.[ j 8 i.i.i.i.i.i.",
"i.i.i.i.i.8 j +.y.y.y.y.y.y.y.y.y.y.y.y.y.y.y.y.o.f 9 i.i.i.i.i.",
"i.i.i.i.8 r [ y.y.y.y.y.y.y.y.y.y.y.y.y.y.y.y.y.y.[ r 8 i.i.i.i.",
"i.i.i.i.8 U y.y.y.y.y.y.y.y.y.y.y.y.y.y.y.y.y.y.y.e.L 8 i.i.i.i.",
"i.i.i.5 j =.y.y.y.y.y.y.y.y.y.y.y.y.y.y.y.y.y.y.y.y.*.p 5 i.i.i.",
"i.i.i.5 U y.y.e._ ! ! ! ! ! ! ! ! ! ! ! ! ! W [ y.y.y.I 5 i.i.i.",
"i.i.5 8 o.y.y.3.&       o o   o     o o       5 9.y.y. .8 5 i.i.",
"i.i.5 f 1.y.y.3.$                             < 9.y.y.>.p 5 i.i.",
"i.i.< m 9.y.y.3.$                             < 9.y.y.9.b < i.i.",
"i.i.< C e.y.y.4.$                             : 9.y.y.e.M < i.i.",
"i.i.< C y.y.y.3.$                             < 9.y.y.e.M : i.i.",
"i.i.: b 9.y.y.3.$                             < 9.y.y.9.x < i.i.",
"i.i.: p >.y.y.3.$                             < 4.y.y.>.i : i.i.",
"i.i.: 5 o.y.y.4.$             i x             : 9.y.y.} 5 < i.i.",
"i.i.i.: L y.y.4.9 O           U _           + x e.y.y.F & i.i.i.",
"i.i.i.: i =.y.y.>. .E H C x f [ #.9 r x A ! @.9.y.y.#.i : i.i.i.",
"i.i.i.i.: H y.y.y.y.y.y.y.y.y.y.y.9.e.y.y.y.y.y.y.y.F & i.i.i.i.",
"i.i.i.i.& 5 / y.y.y.y.y.y.y.y.y.y.y.y.y.y.y.y.y.y.~ < : i.i.i.i.",
"i.i.i.i.i.& r  .y.y.y.y.y.y.y.y.y.y.y.y.y.y.y.y.} 9 : i.i.i.i.i.",
"i.i.i.i.i.i.& 9 / y.y.y.y.y.y.y.y.y.y.y.y.y.e.~ 9 & i.i.i.i.i.i.",
"i.i.i.i.i.i.i.& < H *.y.y.y.y.y.y.y.y.y.y.#.F < & i.i.i.i.i.i.i.",
"i.i.i.i.i.i.i.i.& $ 9 F } >.9.e.e.9.>.} F 9 $ & i.i.i.i.i.i.i.i.",
"i.i.i.i.i.i.i.i.i.i.$ $ : 9 j b b j 9 : $ $ i.i.i.i.i.i.i.i.i.i.",
"i.i.i.i.i.i.i.i.i.i.i.i.$ $ @ $ @ @ $ $ i.i.i.i.i.i.i.i.i.i.i.i.",
"i.i.i.i.i.i.i.i.i.i.i.i.i.i.i.i.i.i.i.i.i.i.i.i.i.i.i.i.i.i.i.i.",
"i.i.i.i.i.i.i.i.i.i.i.i.i.i.i.i.i.i.i.i.i.i.i.i.i.i.i.i.i.i.i.i."
};
